<?xml version="1.0" encoding="utf-8"?>
<!-- Generator: Adobe Illustrator 24.0.2, SVG Export Plug-In . SVG Version: 6.00 Build 0)  -->
<svg version="1.1" id="Layer_1" xmlns="http://www.w3.org/2000/svg" xmlns:xlink="http://www.w3.org/1999/xlink" x="0px" y="0px"
	 viewBox="0 0 66 66" style="enable-background:new 0 0 66 66;" xml:space="preserve">
<style type="text/css">
	.st0{fill:#FFFFFF;}
</style>
<g>
	<path class="st0" d="M0,65.2c0.1-1.2,0.2-2.5,0.3-3.8c0.6-6.4,1-12.8,1.5-19.1C2.3,37.3,2.6,32.1,3.1,27c0-0.6,0.1-1.1,0.1-1.7
		c3.9,0,7.6,0,11.5,0c1.4,13.6,2.9,27,4.3,40.7c-6.4,0-12.8,0-19.1,0C0,65.8,0,65.4,0,65.2z"/>
	<path class="st0" d="M66,66c-14.3,0-28.7,0-43,0c-0.4-3.9-0.8-7.7-1.2-11.6c1.9,0,3.6,0,5.5,0c0-1.3,0-2.5,0-3.9c-2,0-3.9,0-6,0
		c-0.1-1.4-0.3-2.8-0.4-4.1c-0.3-2.6-0.6-5.4-0.9-8.1c0-0.2,0.1-0.6,0.2-0.8c2.8-3.3,5.5-6.7,8.3-10c0.1-0.1,0.3-0.3,0.6-0.3
		c1.7,0,3.3,0,5.1,0c0,4.3,0,8.6,0,12.9c0,0,0.1,0,0.1,0.1c0.2-0.2,0.3-0.4,0.6-0.6c3.3-4,6.6-7.9,9.8-11.9c0.3-0.3,0.7-0.6,1.1-0.6
		c1.5,0,3,0,4.6,0c0,4.1,0,8.3,0,12.4c0,0,0.1,0,0.1,0.1c0.1-0.1,0.2-0.2,0.3-0.4c3.2-3.9,6.4-7.7,9.5-11.6c0.2-0.3,0.6-0.4,1-0.4
		c1.5,0,3.1,0,4.6,0C66,40.2,66,53.1,66,66z M39,50.5c-2.6,0-5.1,0-7.7,0c0,1.3,0,2.5,0,3.8c2.5,0,5.1,0,7.7,0
		C39,53.1,39,51.9,39,50.5z M50.5,50.5c-2.6,0-5.2,0-7.7,0c0,1.3,0,2.5,0,3.8c2.5,0,5.1,0,7.7,0C50.5,53.1,50.5,51.9,50.5,50.5z
		 M62.1,54.4c0-1.3,0-2.5,0-3.9c-2.5,0-5.1,0-7.6,0c0,1.3,0,2.5,0,3.9C57.1,54.4,59.6,54.4,62.1,54.4z"/>
	<path class="st0" d="M36.6,2.1c1.3-1,2.9-1.7,4.5-1.9c3-0.4,5.6,0.1,7.9,2c0.3,0.3,0.7,0.3,1.1,0.1c3.5-1.5,7-1.2,9.9,1.2
		c3,2.5,4.1,5.8,3.1,9.6c-1,3.8-3.6,6.1-7.4,6.8c-2.2,0.4-4.2,0-6.2-1.1c-0.3-0.2-0.7-0.2-1,0.1c-3.1,2-6.4,2.3-9.8,1
		c-0.4-0.2-0.7-0.1-0.9,0.2c-3.6,3.4-8.9,4.2-13.4,1.9c-0.4-0.2-0.7-0.2-1,0c-1.4,1.1-3.1,1.7-5,1.9c-0.1-0.9-0.2-1.8-0.3-2.6
		c-0.3-3-0.7-6-0.9-9.1c0-0.4-0.2-0.6-0.7-0.6c-2.8,0-5.6,0-8.4,0c-0.2,0-0.4,0-0.8,0c0.1-1.7,0.8-3,1.7-4.2
		c2.6-3.5,7.1-5.1,11.4-3.8C21,3.9,21.2,4,21.5,3.6C25.5-0.6,31.9-1,36.3,2C36.4,2,36.5,2,36.6,2.1z"/>
	<path class="st0" d="M14.3,21.3c-3.6,0-7.2,0-10.8,0c0.1-1.9,0.3-3.8,0.4-5.7c3.2,0,6.4,0,9.7,0C13.9,17.5,14.1,19.4,14.3,21.3z"/>
</g>
</svg>
