<?xml version="1.0" encoding="utf-8"?>
<!-- Generator: Adobe Illustrator 24.0.2, SVG Export Plug-In . SVG Version: 6.00 Build 0)  -->
<svg version="1.1" id="Layer_1" xmlns="http://www.w3.org/2000/svg" xmlns:xlink="http://www.w3.org/1999/xlink" x="0px" y="0px"
	 viewBox="0 0 66 66" style="enable-background:new 0 0 66 66;" xml:space="preserve">
<style type="text/css">
	.st0{fill:#FFFFFF;}
</style>
<g>
	<path class="st0" d="M18,0c0.2,0.1,0.4,0.2,0.4,0.3c0.2,0.4,0.5,0.9,0.3,1.2c-0.1,0.3-0.6,0.5-1,0.8c-0.1,0-0.2,0-0.2,0
		c-5.5,0-10.9,0-16.4,0c-0.5,0-0.9-0.2-1.1-0.8c-0.2-0.5,0.1-1,0.5-1.4C0.7,0.1,0.7,0.1,0.8,0C6.5,0,12.3,0,18,0z"/>
	<path class="st0" d="M66,65.2c-0.4,0.6-0.9,0.8-1.7,0.8c-5.3,0-10.5,0-15.8,0c-0.9,0-1.4-0.5-1.4-1.2c0-0.6,0.4-1.1,1-1.1
		c0.2,0,0.4,0,0.6,0c5.2,0,10.4,0,15.6,0c0.8,0,1.3,0.2,1.6,0.8C66,64.7,66,65,66,65.2z"/>
	<path class="st0" d="M26,23.5c-0.5-6.2,1.2-11.7,5.9-16c5.3-4.9,11.5-6.4,18.3-4.4c6.9,2,11.2,6.8,12.9,13.8
		c0.4,1.5,0.5,3.1,0.5,4.7c0.1,13,0,25.9,0,38.9c0,0.2,0,0.5,0,0.8c-4.7,0-9.4,0-14.1,0c0-0.3,0-0.5,0-0.8c0-13,0-26,0-39
		c0-2.9-2.1-5-4.9-4.9c-2.4,0.1-4.4,2.1-4.5,4.5c0,0.8,0,1.7,0,2.5C35.4,23.5,30.7,23.5,26,23.5z"/>
	<path class="st0" d="M2.3,4.7c4.7,0,9.4,0,14.1,0c0,0.3,0,0.6,0,0.8c0,13,0,26,0,39c0,2.9,2.1,5,4.9,4.9c2.5-0.1,4.5-2.1,4.6-4.5
		c0-0.8,0-1.7,0-2.5c4.7,0,9.4,0,14.1,0c0,1.1,0.1,2.1,0,3.2c-0.6,7.5-4.2,13.1-11.1,16.3C18,67.1,4.8,60.2,2.7,48.3
		c-0.2-1.3-0.3-2.5-0.4-3.8c0-13,0-26,0-39C2.3,5.3,2.3,5,2.3,4.7z M4.7,23.6c0,2,0,4,0,5.9c0,0.8,0,1.6,0,2.4
		c0,0.6,0.5,1.1,1.1,1.1c0.6,0.1,1.1-0.4,1.3-1c0-0.2,0-0.4,0-0.6c0-5.3,0-10.4,0-15.7c0-0.3,0-0.6-0.2-0.9
		c-0.2-0.5-0.6-0.8-1.2-0.7c-0.5,0.1-0.9,0.4-1,0.9c-0.1,0.2,0,0.5,0,0.7C4.7,18.4,4.7,21,4.7,23.6z M7.1,9.5c0-0.5,0-0.8,0-1.3
		C7,7.5,6.5,7.1,5.9,7.1C5.3,7.1,4.7,7.5,4.7,8.2c0,0.8,0,1.7,0,2.4c0,0.7,0.5,1.1,1.1,1.1c0.7,0,1.1-0.5,1.2-1.1
		C7.1,10.2,7.1,9.8,7.1,9.5z"/>
	<path class="st0" d="M33.1,25.9c2.6,0,5.3,0,7.9,0c1.1,0,1.5,0.4,1.5,1.5c0,3.7,0,7.4,0,11.1c0,1.1-0.4,1.5-1.5,1.5
		c-5.3,0-10.6,0-15.9,0c-1.1,0-1.5-0.4-1.5-1.5c0-3.8,0-7.4,0-11.2c0-1.1,0.4-1.5,1.5-1.5C27.7,25.9,30.4,25.9,33.1,25.9z"/>
</g>
</svg>
