<?xml version="1.0" encoding="utf-8"?>
<!-- Generator: Adobe Illustrator 24.0.2, SVG Export Plug-In . SVG Version: 6.00 Build 0)  -->
<svg version="1.1" id="Layer_1" xmlns="http://www.w3.org/2000/svg" xmlns:xlink="http://www.w3.org/1999/xlink" x="0px" y="0px"
	 viewBox="0 0 59 66" style="enable-background:new 0 0 59 66;" xml:space="preserve">
<style type="text/css">
	.st0{fill:#FFFFFF;}
</style>
<g>
	<path class="st0" d="M31.2,0c1.1,0.2,2.2,0.3,3.2,0.5c0.6,0.1,1.3,0.2,1.9,0.4c1.5,0.4,2,1.5,1.4,3c-1.1,2.5-2.3,5-3.4,7.6
		c-1.1,2.4-2.1,4.7-3.2,7.1c-0.3,0.8-0.3,1.5,0.3,2.2c0.5,0.6,1.2,0.7,1.9,0.6c0.7-0.2,1.1-0.7,1.4-1.4c1.9-4.2,3.7-8.3,5.6-12.5
		c0.1-0.2,0.2-0.4,0.3-0.6C46.6,9,53.8,19.1,53.7,25.2c-16.5,0-32.9,0-49.5,0c0.4-3.2,1.5-6.1,3.1-8.8c2.5-4.4,6.6-8,10.1-9.6
		c1.1,2.4,2.2,4.8,3.3,7.3c0.9,2,1.8,4.1,2.8,6.2c0.4,0.8,1.2,1.3,2,1.2c0.8-0.1,1.5-0.7,1.6-1.6c0.1-0.4-0.1-0.9-0.3-1.4
		c-2.1-4.8-4.3-9.6-6.4-14.4c-0.7-1.6-0.2-2.7,1.5-3.1c1.5-0.3,3-0.5,4.5-0.8c0.1,0,0.3-0.1,0.4-0.1C28.3,0,29.8,0,31.2,0z"/>
	<path class="st0" d="M39.5,59.4c-1.5,0.6-2.9,1.2-4.3,1.7c-0.2,0.1-0.3,0.3-0.3,0.5c0,0.8,0,1.6,0,2.4c0,1.1-0.8,1.9-2,1.9
		c-2.5,0-5.1,0-7.7,0c-1.2,0-2-0.8-2-2c0-0.8,0-1.6,0-2.4c0-0.2-0.2-0.4-0.3-0.5c-1.4-0.6-2.8-1.1-4.4-1.7c-0.5,0.5-1.1,1.2-1.7,1.8
		c-0.9,0.9-2,0.9-3,0c-1.8-1.8-3.5-3.5-5.3-5.3c-0.9-0.9-0.9-2,0-3c0.5-0.5,1-1,1.5-1.4c0.3-0.3,0.3-0.5,0.2-0.8
		c-0.6-1.2-1.1-2.4-1.5-3.7c-0.1-0.3-0.2-0.4-0.6-0.4c-0.8,0-1.5,0-2.3,0c-1,0-1.8-0.7-1.9-1.6c-0.1-1.6,0-3.1,0-4.7
		c0-0.2,0-0.5,0-0.7c3.9,0.7,7.8,1.4,11.7,2.2c0.4,4,2.1,7.4,5.4,9.8c2.5,1.9,5.4,2.8,8.5,2.7c7-0.4,12.1-5.4,12.9-12.6
		c1.9-0.3,3.9-0.6,5.9-1c1.9-0.4,3.9-0.8,5.8-1.2c0,1.8,0.1,3.7,0,5.5c0,0.9-0.9,1.5-1.8,1.6c-0.8,0-1.5,0-2.3,0
		c-0.3,0-0.5,0.1-0.6,0.4c-0.5,1.3-1,2.5-1.5,3.7c-0.1,0.3-0.1,0.5,0.1,0.7c0.5,0.5,1,1,1.5,1.5c0.9,0.9,0.9,2,0,3
		c-1.8,1.8-3.5,3.5-5.3,5.3c-0.9,0.9-2,0.9-3,0C40.6,60.5,40,59.9,39.5,59.4z"/>
	<path class="st0" d="M29,29.1c8.9,0,17.8,0,26.7,0c0.7,0,1.3,0,1.8,0.6c0.3,0.4,0.5,0.8,0.6,1.3c0.1,0.7,0,1.3,0,2
		c0,1-0.5,1.7-1.5,2c-2.2,0.6-4.4,1.2-6.6,1.5c-3.7,0.7-7.4,1.3-11.2,1.8c-4.5,0.6-8.9,0.7-13.4,0.5C17.3,38.3,9.5,37,1.7,35
		C0.5,34.6,0,34,0,32.8c0-0.6,0-1.2,0-1.8c0.1-1,0.8-1.7,1.8-1.8c0.3,0,0.5,0,0.8,0C11.4,29.1,20.2,29.1,29,29.1z"/>
</g>
</svg>
