<?xml version="1.0" encoding="utf-8"?>
<!-- Generator: Adobe Illustrator 24.0.2, SVG Export Plug-In . SVG Version: 6.00 Build 0)  -->
<svg version="1.1" id="Layer_1" xmlns="http://www.w3.org/2000/svg" xmlns:xlink="http://www.w3.org/1999/xlink" x="0px" y="0px"
	 viewBox="0 0 66 66" style="enable-background:new 0 0 66 66;" xml:space="preserve">
<style type="text/css">
	.st0{fill:#FFFFFF;}
</style>
<g>
	<path class="st0" d="M0,43.5c0-6.1,0.1-12.1,0-18.2c0-2.6,1.8-4.4,4.4-4.3c1.8,0.1,3.7,0,5.5,0c2.6,0,4.2,1.6,4.2,4.2
		c0,12.3,0,24.6,0,36.7c0,2.6-1.6,4.1-4.2,4.2c-1.9,0-3.9,0-5.7,0C1.6,66,0,64.4,0,61.8C0,55.8,0,49.6,0,43.5z"/>
	<path class="st0" d="M17.4,48.3c0-4.5,0-9,0-13.6c0-2.7,1.6-4.2,4.2-4.2c1.9,0,3.8,0,5.7,0c2.5,0,4.2,1.6,4.2,4.1
		c0,9.1,0,18.3,0,27.4c0,2.5-1.7,4.1-4.2,4.1c-1.9,0-4,0-5.9,0c-2.4,0-4.1-1.7-4.1-4.1C17.4,57.4,17.4,52.8,17.4,48.3z"/>
	<path class="st0" d="M66,48.2c0,4.5,0,9,0,13.6c0,2.8-1.6,4.2-4.2,4.2c-1.8,0-3.8,0-5.6,0c-2.6,0-4.2-1.6-4.2-4.2
		c0-9.1,0-18.3,0-27.3c0-2.5,1.7-4.2,4.2-4.2c1.9,0,3.9,0,5.7,0c2.5,0,4.1,1.6,4.1,4.1C66,39,66,43.7,66,48.2z"/>
	<path class="st0" d="M42.3,24c4.4-4.6,8.8-9.1,13.3-13.8c-0.9,0-1.8-0.1-2.6-0.1c-1-0.1-1.8-0.8-2-1.8c-0.2-1,0.2-2,1.1-2.5
		c0.4-0.2,0.9-0.3,1.4-0.3c2.5,0,5,0.1,7.5,0.2c1.6,0.1,2.4,0.9,2.4,2.5c0,2.5-0.1,5.1-0.2,7.6c0,1.4-1,2.4-2.4,2.3
		c-1.3,0-2.2-1-2.2-2.4c0-0.6,0-1.2,0-1.8c-0.1,0-0.1-0.1-0.2-0.1c-0.2,0.2-0.3,0.5-0.5,0.6c-4.6,4.8-9.1,9.6-13.8,14.3
		c-1.5,1.6-2.9,1.5-4.2-0.2c-2.4-3-4.8-6.2-7.2-9.2c-0.3-0.4-0.6-0.6-1.1-0.6c-2.5,0-4.9,0-7.4,0c-0.7,0-1.4-0.2-2-0.6
		C16.1,13.6,10,9,3.8,4.3C2.7,3.4,2.5,2,3.2,0.9C4-0.2,5.4-0.4,6.6,0.6C12.5,5,18.3,9.3,24.2,13.8c0.4,0.3,0.8,0.4,1.2,0.4
		c2.5,0,5,0.1,7.4,0c1.2,0,2,0.4,2.8,1.4c2,2.7,4.1,5.3,6.2,7.8C41.9,23.5,42.1,23.7,42.3,24z"/>
	<path class="st0" d="M48.7,53c0,3,0,5.9,0,8.9c0,2.6-1.6,4.2-4.2,4.2c-1.9,0-3.9,0-5.7,0c-2.5,0-4.2-1.6-4.2-4.2
		c0-5.9,0-11.9,0-17.8c0-2.5,1.7-4.2,4.2-4.2c1.9,0,4,0,5.9,0c2.4,0,4,1.7,4.1,4.1C48.7,46.9,48.7,49.9,48.7,53z"/>
</g>
</svg>
