<?xml version="1.0" encoding="utf-8"?>
<!-- Generator: Adobe Illustrator 24.0.2, SVG Export Plug-In . SVG Version: 6.00 Build 0)  -->
<svg version="1.1" id="Layer_1" xmlns="http://www.w3.org/2000/svg" xmlns:xlink="http://www.w3.org/1999/xlink" x="0px" y="0px"
	 viewBox="0 0 35 66" style="enable-background:new 0 0 35 66;" xml:space="preserve">
<style type="text/css">
	.st0{fill:#FFFFFF;}
</style>
<g>
	<path class="st0" d="M33.4,0L33.4,0c1.5,0.8,1.8,1.8,0.9,3.2c-2.6,4.3-5.1,8.7-7.7,13c-0.6,1-1.2,2.1-1.9,3.3c0.3,0,0.5,0,0.7,0
		c2.4,0,4.8,0,7.2,0c0.9,0,1.5,0.3,2,1c0.4,0.8,0.2,1.5-0.3,2.2C24,36.8,13.8,50.8,3.7,64.9c-0.5,0.8-1.2,1.2-2.1,1
		c-0.8-0.2-1.4-0.7-1.5-1.5c-0.1-0.5,0.1-1,0.3-1.5C3.2,55,6.1,47.2,9,39.4c0.5-1.5,1.1-2.9,1.6-4.5c-0.3,0-0.5,0-0.8,0
		c-2.6,0-5.2,0-7.8,0c-1.5,0-2.4-1-2.1-2.6C2.7,22.1,5.1,11.8,7.7,1.6C7.9,0.9,8.4,0.3,9.1,0C17.2,0,25.3,0,33.4,0z"/>
</g>
</svg>
