<?xml version="1.0" encoding="utf-8"?>
<!-- Generator: Adobe Illustrator 24.0.2, SVG Export Plug-In . SVG Version: 6.00 Build 0)  -->
<svg version="1.1" id="Layer_1" xmlns="http://www.w3.org/2000/svg" xmlns:xlink="http://www.w3.org/1999/xlink" x="0px" y="0px"
	 viewBox="0 0 97 66" style="enable-background:new 0 0 97 66;" xml:space="preserve">
<style type="text/css">
	.st0{fill:#FFFFFF;}
</style>
<g>
	<path class="st0" d="M50.6,52.8c0,3,0,5.9,0,8.8c0.9,0,1.8,0,2.6,0c1.3,0,2.6,0,4,0c1.2,0,2.1,0.9,2.1,2.1s-0.8,2.1-2,2.2
		c-0.1,0-0.4,0-0.5,0c-5.7,0-11.2,0-16.9,0c-0.1,0-0.4,0-0.5,0c-1.2-0.1-2-1.1-2-2.2s0.8-2.1,2.1-2.1c1.8,0,3.7,0,5.4,0
		c0.4,0,0.8,0,1.2,0c0-2.9,0-5.8,0-8.7c-4.9,0-9.8,0-14.9,0c0.9-5.1,1.7-10.3,2.5-15.4c9.8,0,19.4,0,29.3,0c0.8,5,1.7,10,2.5,15.3
		C60.5,52.8,55.6,52.8,50.6,52.8z"/>
	<path class="st0" d="M29.3,37.5c-0.9,5.1-1.7,10.2-2.5,15.3c-0.4,0-0.7,0-1.1,0c-7.7,0-15.2,0-22.8,0c-2.4,0-3.3-1.2-2.6-3.4
		c1.1-3.7,2-7.4,3-11c0.1-0.5,0.3-0.9,1.1-0.9c8.1,0,16.2,0,24.3,0C28.8,37.4,28.9,37.5,29.3,37.5z"/>
	<path class="st0" d="M70,52.8c-0.8-5.1-1.7-10.2-2.5-15.4c0.5,0,0.8,0,1.2,0c7.8,0,15.7,0,23.5,0c0.8,0,1.2,0.3,1.3,0.9
		c0.9,3.7,2,7.4,3,11c0.7,2.2-0.3,3.4-2.6,3.4c-7.7,0-15.2,0-22.8,0C70.6,52.8,70.4,52.8,70,52.8z"/>
	<path class="st0" d="M87,15.4c-0.4,0-0.7,0-0.9,0c-7.1,0-14.1,0-21.3,0c-0.8,0-1.1-0.3-1.2-1.1C63,10,62.2,5.5,61.5,1.2
		c0-0.4-0.1-0.8-0.1-1.2c0.3,0,0.5,0,0.7,0c6.3,0,12.8,0,19.1,0c1.3,0,2.1,0.5,2.5,1.7c1.2,4.4,2.4,8.8,3.6,13.2
		C87,15,87,15.2,87,15.4z"/>
	<path class="st0" d="M35.5,0.1c-0.5,3.3-1.1,6.7-1.6,10c-0.3,1.6-0.5,3-0.8,4.6c-0.1,0.5-0.3,0.8-0.8,0.8c-7.4,0-14.8,0-22.2,0
		c-0.1,0-0.3,0-0.5-0.1c0.4-1.6,0.8-3.2,1.3-4.8c0.8-2.9,1.6-5.8,2.2-8.6c0.4-1.3,1.1-1.8,2.4-1.8c6.5,0,12.9,0,19.3,0
		C35,0,35.2,0,35.5,0.1z"/>
	<path class="st0" d="M36.7,19.8c7.8,0,15.6,0,23.4,0c0.7,4.4,1.5,8.7,2.2,13.1c-9.2,0-18.5,0-27.7,0C35.2,28.6,35.9,24.3,36.7,19.8
		z"/>
	<path class="st0" d="M30,33c-8.4,0-16.8,0-25.2,0c0.8-3.2,1.7-6.2,2.5-9.2c0.3-1.1,0.7-2,0.8-3c0.1-0.8,0.5-0.9,1.2-0.9
		c6.9,0,13.6,0,20.5,0c0.8,0,1.6,0,2.5,0C31.4,24.3,30.8,28.5,30,33z"/>
	<path class="st0" d="M91.9,33c-8.4,0-16.8,0-25.2,0c-0.7-4.4-1.5-8.7-2.2-13.2c0.4,0,0.8,0,1.1,0c7.3,0,14.5,0,21.8,0
		c0.7,0,1.1,0.1,1.3,0.9c0.9,3.8,2,7.7,3,11.5C91.7,32.3,91.7,32.6,91.9,33z"/>
	<path class="st0" d="M39.9,0C45.4,0,51,0,56.6,0c0.8,5,1.7,10.2,2.5,15.3c-7.3,0-14.5,0-21.9,0C38.3,10.3,39.1,5.1,39.9,0z"/>
</g>
</svg>
