<?xml version="1.0" encoding="utf-8"?>
<!-- Generator: Adobe Illustrator 24.0.2, SVG Export Plug-In . SVG Version: 6.00 Build 0)  -->
<svg version="1.1" id="Layer_1" xmlns="http://www.w3.org/2000/svg" xmlns:xlink="http://www.w3.org/1999/xlink" x="0px" y="0px"
	 viewBox="0 0 66 66" style="enable-background:new 0 0 66 66;" xml:space="preserve">
<style type="text/css">
	.st0{fill:#FFFFFF;}
</style>
<g>
	<path class="st0" d="M64.5,0c1.1,0.5,1.5,1.4,1.4,2.6c-0.1,2.3,0,4.5,0,6.8c0,1.5-0.8,2.3-2.2,2.3c-2.5,0-4.9,0-7.4,0
		c-1.4,0-2.2-0.8-2.2-2.2c0-0.5,0-1.1,0-1.7c-2.6,0-5.1,0-7.8,0c0.6,0.5,1.2,0.8,1.7,1.3c5.3,4.2,8.6,9.7,9.5,16.4
		c0.2,1.3,0.4,2.2,1.7,2.9c2.3,1.3,3.1,4.3,2.1,6.8c-0.9,2.3-3.5,3.9-6,3.6c-2.6-0.4-4.6-2.2-5-4.6c-0.5-2.7,0.8-5.1,3.2-6.4
		c0.3-0.2,0.5-0.3,0.4-0.6c-0.7-6-3.3-11-8-14.8c-2.3-1.8-4.7-3-7.5-3.8c-0.4-0.1-0.5,0-0.7,0.3c-2.4,3.7-7.4,3.7-9.8,0
		c-0.2-0.3-0.4-0.4-0.8-0.3c-8.1,2.2-14.3,9.2-15.4,17.6c-0.2,0.9-0.2,1.5,0.9,2c2.1,1.2,3,3.5,2.6,5.9c-0.4,2.2-2.3,4.1-4.4,4.5
		c-2.5,0.5-4.5-0.3-6-2.3c-2-2.9-0.9-7.1,2.3-8.6c0.5-0.2,0.8-0.5,0.8-1.1c0.6-6.3,3.2-11.7,7.8-16.1c1.1-1.1,2.3-1.9,3.5-2.9
		c-2.5,0-5,0-7.7,0c0,0.5,0,1.1,0,1.7c0,1.4-0.8,2.2-2.2,2.2c-2.3,0-4.7-0.1-7,0c-1.2,0-2.1-0.3-2.6-1.4C0,7.3,0,4.4,0,1.4
		C0.5,1,1,0.5,1.4,0c2.9,0,5.9,0,8.9,0c1.8,0.8,1.4,2.4,1.4,3.8c0.3,0,0.5,0,0.8,0c4.7,0,9.5,0,14.2,0c0.6,0,1.1-0.1,1.3-0.8
		C28,2.7,28.4,2.4,28.6,2c0.9-1.2,2.3-1.7,3.7-2.1c0.5,0,1.1,0,1.6,0C33.9-0.1,34,0,34.1,0c2,0.5,3.5,1.6,4.3,3.5
		c0.1,0.2,0.5,0.3,0.7,0.3c4.9,0,9.8,0,14.6,0c0.2,0,0.4,0,0.6,0c0.1-1.5-0.4-3.1,1.4-3.8C58.6,0,61.6,0,64.5,0z"/>
	<path class="st0" d="M31,17c0,4.6,0,9,0,13.4c0,1.5,0,2.9,0,4.4c0,0.2-0.2,0.5-0.4,0.6c-4.1,2-4.7,7.1-1.1,9.9
		c1.7,1.4,3.7,1.6,5.6,0.8c2-0.8,3.2-2.3,3.5-4.4c0.4-2.7-0.9-5-3.3-6.2c-0.3-0.2-0.5-0.2-0.5-0.6c0-5.9,0-11.7,0-17.6
		c0-0.1,0-0.1,0.1-0.2c0.2,0.2,0.2,0.3,0.4,0.5c4.8,7.2,9.7,14.5,14.5,21.7c0.8,1.1,0.8,2-0.2,2.9c-3.4,3.5-5.6,7.7-6.5,12.5
		c0,0.1-0.1,0.2-0.1,0.4c-0.4-0.2-0.8-0.3-1.1-0.3c-1.1-0.2-2.3-0.5-3.5-0.5c-3-0.1-6.1,0-9.1,0c-2.2,0-4.4-0.1-6.5,0.9
		c-0.2-1-0.5-1.9-0.8-2.8c-1.1-3.6-2.9-6.8-5.5-9.6c-0.2-0.2-0.2-0.2-0.4-0.4c-0.9-1.1-1-1.8-0.2-2.9c1.9-2.8,3.7-5.6,5.6-8.3
		c2.9-4.4,5.9-8.9,8.9-13.4C30.6,17.5,30.8,17.3,31,17z"/>
	<path class="st0" d="M33,65.9c-3.6,0-7.3,0-10.9,0c-0.4,0-0.7,0-1-0.2c-1.1-0.4-1.5-1.4-1.1-2.4c1.1-3.2,4-5.3,7.3-5.3
		c3.8-0.1,7.7-0.1,11.6,0c3.3,0.1,6.2,2.2,7.3,5.3c0.5,1.3-0.4,2.5-1.8,2.6c-1.1,0-2.1,0-3.2,0C38.4,65.9,35.7,65.9,33,65.9z"/>
	<path class="st0" d="M34.9,40.7c0,1.1-0.8,2-1.9,2c-1.1,0-2-0.8-2-1.9c0-1.1,0.8-2,1.9-2C34,38.7,34.9,39.6,34.9,40.7z"/>
</g>
</svg>
