<svg width="484" height="302" viewBox="0 0 484 302" fill="none" xmlns="http://www.w3.org/2000/svg">
<path fill-rule="evenodd" clip-rule="evenodd" d="M175.959 113.441C162.507 175.834 151.222 226.571 150.882 226.191C150.541 225.811 146.562 196.025 142.038 160C137.514 123.975 133.574 93.263 133.281 91.75L132.75 89H122.875C117.444 89 113 89.198 113 89.44C113 89.682 102.405 135.683 89.455 191.664C76.505 247.645 65.525 295.16 65.055 297.253L64.2 301.058L76.832 300.779L89.465 300.5L105.076 233.059C114.717 191.41 120.9 166.551 121.243 168.059C121.549 169.401 124.881 199.883 128.648 235.796L135.496 301.091L138.944 300.796L142.391 300.5L174.678 154C192.436 73.425 207.256 5.813 207.611 3.75L208.256 0H204.337H200.418L175.959 113.441ZM209.617 1.75C209.157 3.303 145.702 291.389 144.309 298.25C143.771 300.896 143.906 301 147.875 301C150.144 301 152 300.769 152 300.487C152 300.048 216.033 8.531 217.509 2.25C217.989 0.207 217.674 0 214.086 0C211.187 0 209.997 0.466 209.617 1.75ZM186.582 149.25C168.514 231.338 153.519 299.063 153.259 299.75C152.895 300.712 155.9 301 166.285 301H179.783L181.283 294.25C182.108 290.538 184.061 281.537 185.622 274.25L188.461 261H207.23C225.158 261 226 261.087 226 262.946C226 265.476 227.846 288.972 228.577 295.75L229.144 301H242.166H255.188L254.582 296.25C254.25 293.637 248.137 228.275 240.998 151C233.859 73.725 227.737 8.138 227.394 5.25L226.77 0H223.101H219.432L186.582 149.25ZM54.032 65.25C52.859 70.338 51.662 75.3 51.373 76.278C50.884 77.932 51.84 78.037 65.121 77.778L79.395 77.5L81.652 68C82.893 62.775 83.93 57.938 83.955 57.25C83.989 56.308 80.574 56 70.083 56H56.167L54.032 65.25ZM431 90.542C413.839 95.259 400.232 108.471 392.292 128.129C389.999 133.806 381.045 166.85 381.013 169.75C381.003 170.695 384.637 171 395.886 171H410.771L413.548 159.75C419.317 136.379 423.709 126.206 430.793 119.806C435.804 115.279 440.795 114.244 445.798 116.694C454.662 121.036 454.378 125.745 442.298 174.75L437.552 194H405.996H374.44L366.487 225.75C358.684 256.903 358.534 257.735 358.517 270C358.502 280.91 358.774 283.009 360.653 286.5C365.979 296.398 376.929 301.024 394.934 300.983C411.672 300.944 424.351 295.921 434.988 285.115C448.284 271.608 451.805 262.53 466.054 205C484.696 129.734 484.26 131.797 483.796 121C483.309 109.67 481.175 104.109 475.022 98.137C468.646 91.95 461.771 89.712 448 89.341C439.978 89.124 434.837 89.488 431 90.542ZM48 90.612C48 90.949 37.2 137.914 24 194.979C10.8 252.044 0 299.244 0 299.867C0 300.657 4.238 301 14 301C21.7 301 28 300.711 28 300.357C28 300.003 38.8 252.968 52 195.834C65.2 138.7 76 91.515 76 90.977C76 90.387 70.45 90 62 90C54.3 90 48 90.275 48 90.612ZM283.498 97.75C283.838 101.463 285.868 128.747 288.01 158.382L291.903 212.264L281.463 254.382C275.721 277.547 270.784 297.512 270.492 298.75C269.962 300.998 269.972 301 283.442 301H296.923L297.895 297.25C298.43 295.188 303.024 276.175 308.105 255L317.342 216.5L350.137 155.42C368.174 121.827 383.226 93.576 383.584 92.641C384.182 91.084 383.109 90.964 370.935 91.22L357.633 91.5L336.803 130.963C325.347 152.668 315.618 170.782 315.184 171.216C314.749 171.651 313.322 153.78 312.012 131.503L309.631 91H296.255H282.879L283.498 97.75ZM220.106 187.717C222.217 214.547 223.957 237.287 223.972 238.25C223.998 239.843 222.601 240 208.393 240C196.321 240 192.893 239.717 193.26 238.75C193.521 238.063 198.628 215.147 204.61 187.826C210.592 160.506 215.662 138.328 215.876 138.543C216.091 138.758 217.994 160.886 220.106 187.717ZM431.995 216.25C431.992 216.938 430.196 224.368 428.003 232.763C420.274 262.343 414.634 272.383 403.747 275.933C398.996 277.483 394.91 276.598 391.876 273.364C387.998 269.231 388.73 258.68 394.434 236.5C396.98 226.6 399.304 217.713 399.599 216.75C400.08 215.179 401.764 215 416.067 215C428.149 215 431.999 215.302 431.995 216.25Z" fill="#024428"/>
</svg>
